# xmcd
#
# Track frame offsets: 
#        150
#        22716
#        42977
#        62589
#        84004
#        107771
#        127000
#        142147
#        164135
#        178554
#        192321
#        216578
#        235679
#        253908
#
# Disc length: 3505 seconds
#
# Revision: 0
# Processed by: cddbd v1.5.2PL0 Copyright (c) Steve Scherf et al.
# Submitted via: ExactAudioCopy v0.99pb5
#
DISCID=c80daf0e
DTITLE=ILSE DELANGE - Live In Amsterdam
DYEAR=2007
DGENRE=Blues
TTITLE0=Don't let go of Me
TTITLE1=Reach for the light
TTITLE2=The lonely one
TTITLE3=World of hurt
TTITLE4=Livin'on love
TTITLE5=Ilove you
TTITLE6=Tapdancing on the highwire
TTITLE7=Flying blind
TTITLE8=Sister golden hair
TTITLE9=I'be yours
TTITLE10=Ride the wind to me
TTITLE11=I'will always love you
TTITLE12=The great escape
TTITLE13=I'm not so tough
EXTD=
EXTT0=
EXTT1=
EXTT2=
EXTT3=
EXTT4=
EXTT5=
EXTT6=
EXTT7=
EXTT8=
EXTT9=
EXTT10=
EXTT11=
EXTT12=
EXTT13=
PLAYORDER=
